<?xml version="1.0" encoding="UTF-8"?>
<svg id="Camada_1" data-name="Camada 1" xmlns="http://www.w3.org/2000/svg" version="1.1" viewBox="0 0 600 600">
  <defs>
    <style>
      .cls-1 {
        fill: #000;
        stroke-width: 0px;
      }
    </style>
  </defs>
  <path class="cls-1" d="M284.7,96.6h33.5c12.7,2.6,25.5,4.6,37.9,8,116.1,31.2,180.1,163.2,133,273.7-36.2,85-118.7,135.1-210.5,124.5-81-9.3-137.4-53.9-167.9-129.5-7.2-17.9-9.6-37.8-14.1-56.8v-33.5c.5-2,1.2-4,1.5-6,11.6-79.4,54.1-135.3,128.2-165.7,18.4-7.5,38.8-9.9,58.3-14.7h.1ZM302.1,123.8c-96.4-1.7-176.8,77.4-178.3,175.5-1.5,96.5,77.5,176.6,175.7,178.2,96.1,1.5,175.9-77,177.9-175.1,2-96.2-77.1-176.8-175.3-178.5h0Z"/>
  <path class="cls-1" d="M301.2,281.6h98.8c2.9,0,5.9,0,8.7.3,7,.9,11.6,6.3,11.5,13,0,6.7-4.7,11.8-11.8,12.7-2.4.3-4.8.3-7.2.3h-203.9c-10.5-.2-16.4-5.1-16.3-13.3.1-8.2,6-12.9,16.6-13h103.6Z"/>
  <path class="cls-1" d="M313.8,295.4c0,32.9,0,65.8.1,98.8,0,2.9,0,5.9-.3,8.7-.9,7-6.3,11.6-13,11.5-6.7,0-11.8-4.7-12.7-11.8-.3-2.4-.3-4.8-.3-7.2,0-66.9-.2-133.8-.3-200.7v-3.2c.2-10.5,5.1-16.4,13.3-16.3,8.2,0,12.9,6,13,16.6,0,34.5,0,69,.1,103.5h0Z"/>
</svg>