<?xml version="1.0" encoding="UTF-8"?>
<svg id="Camada_1" data-name="Camada 1" xmlns="http://www.w3.org/2000/svg" version="1.1" viewBox="0 0 600 600">
  <defs>
    <style>
      .cls-1 {
        fill: #000;
        stroke-width: 0px;
      }
    </style>
  </defs>
  <path class="cls-1" d="M284.7,96.6c11.2,0,22.3,0,33.5,0,12.7,2.6,25.5,4.6,37.9,8,116.1,31.2,180.1,163.2,133,273.7-36.2,85-118.7,135.1-210.5,124.5-81-9.3-137.4-53.9-167.9-129.5-7.2-17.9-9.6-37.8-14.1-56.8,0-11.2,0-22.3,0-33.5.5-2,1.2-4,1.5-6,11.6-79.4,54.1-135.3,128.2-165.7,18.4-7.5,38.8-9.9,58.3-14.7ZM302.1,123.8c-96.4-1.7-176.8,77.4-178.3,175.5-1.5,96.5,77.5,176.6,175.7,178.2,96.1,1.5,175.9-77,177.9-175.1,2-96.2-77.1-176.8-175.3-178.5Z"/>
  <path class="cls-1" d="M301.2,287.4c32.9,0,65.8,0,98.8,0,2.9,0,5.9,0,8.7.3,7,.9,11.6,6.3,11.5,13,0,6.7-4.7,11.8-11.8,12.7-2.4.3-4.8.3-7.2.3-66.9,0-133.8,0-200.7,0-1.1,0-2.1,0-3.2,0-10.5-.2-16.4-5.1-16.3-13.3.1-8.2,6-12.9,16.6-13,34.5,0,69,0,103.5,0Z"/>
</svg>