<?xml version="1.0" encoding="UTF-8"?>
<svg id="Camada_1" data-name="Camada 1" xmlns="http://www.w3.org/2000/svg" version="1.1" viewBox="0 0 500 500">
  <defs>
    <style>
      .cls-1 {
        fill: #d0a933;
      }

      .cls-1, .cls-2 {
        stroke-width: 0px;
      }

      .cls-2 {
        fill: #3b3937;
      }
    </style>
  </defs>
  <path class="cls-2" d="M287.5,374.1h0c0,6.4,1.7,11.1,5.1,13.9s8.2,4.2,14.2,4.2h7.1v2.6h-81.6v-2.6h5.5c6.1,0,10.8-1.4,14.2-4.2,3.4-2.8,5.1-7.5,5.1-14.1v-33.6h31l-.6,33.8ZM360.7,301.4h-24.7c1.3-1.7,5.3-21,5.3-37.1s-2.9-32.9-8.6-41.2c-5.8-8.3-15.6-12.4-29.5-12.4h-15.7v90.7h-30.3v-73.4c0-6.1-1.7-10.5-5.1-13.2-3.4-2.7-8.1-4.1-14.2-4.1h-5.5v-2.6h75.3c22.7,0,39.4,4.9,50.2,14.6,10.8,9.8,16.2,23.2,16.2,40.3s-2.3,20.2-6.9,29.1c-1.7,3.3-3.8,6.4-6.4,9.3"/>
  <path class="cls-2" d="M207,301.4c-3-3.5-7-8.5-8.9-11.6l-38.4-63.2h-15.4l3,68v6.8l-30.9.3v-7.6c0,0-2.4-147.3-2.4-147.3,0,0-1.7-10.5-5.1-13.2s-8.1-4.1-14.2-4.1h-5.5v-2.6h74.2c23.2,0,40.4,4.2,51.6,12.6,11.2,8.4,16.9,20.4,16.9,36.1s-2,18.1-5.9,24.6c-3.9,6.4-9,11.6-15.3,15.5s-12.8,6.8-19.6,8.8l34.5,55.4c2.1,3.4,5.6,8.5,8.5,12.6,2.4,3.5,4.4,6.3,4.8,6.8l1.6,2.1h-33.5M144.3,223.9h17.5c13.4,0,23-3.6,28.9-10.8,5.8-7.2,8.8-19.1,8.8-35.7s-3-29.1-8.9-36.6-15.7-11.3-29.3-11.3h-17v94.4Z"/>
  <path class="cls-1" d="M209,311.1c-.8,1.3-1.8,2.6-3,3.7s-2.6,2.1-4,2.9-2.9,1.5-4.3,2c-1.4.5-2.8.8-4,1-.2,0-.3,0-.3.3v.4c.5.8,1,1.6,1.6,2.5.6.8,1.3,1.6,2,2.4.7.7,1.5,1.3,2.3,1.8.8.4,1.6.7,2.5.7s.3,0,.4,0c.6,0,1.2-.2,1.7-.5s.9-.6,1.3-1c.3-.4.6-.8.8-1.1s.4-.7.5-.9c0-.3.1-.4.1-.4,0-.2.2-.3.3-.4.2,0,.3-.1.5,0,.2,0,.3.2.4.3,0,.1.1.3,0,.5,0,0,0,.2-.2.5-.1.3-.3.7-.6,1.1s-.6.9-1,1.4-.9.9-1.5,1.2c-.6.3-1.3.5-2.1.6h-.5c-1,0-1.9-.2-2.8-.6-.8-.4-1.7-1-2.4-1.7-.8-.7-1.4-1.5-2.1-2.3-.6-.9-1.2-1.7-1.7-2.5h-.2c-.3,1.2-.6,2.3-.9,3.2-.3.9-.7,1.7-1.1,2.3-.4.6-.9,1-1.4,1.1-.2,0-.4,0-.6-.1-.2-.2-.2-.4-.2-.6,0-.3.2-.4.5-.4s.6-.3.9-.8c.3-.4.5-1,.7-1.6.2-.7.4-1.4.6-2.3.2-.8.4-1.7.6-2.5h0c-.6-.1-1.1-.2-1.7-.4-.5-.2-.8-.4-1-.9s-.3-.9-.1-1.4c0,0,0-.2.1-.4,0-.2.2-.3.3-.5.2-.2.4-.3.6-.3.4,0,.7,0,1,.4.3.3.7.8,1.1,1.4,0,0,.1.1.2,0h.1c.3-1.4.5-2.6.8-3.8s.5-2.2.9-3.1c.3-.9.7-1.7,1.1-2.3.4-.6.9-1,1.5-1.1h.5c.2,0,.2.2.3.4v.5c0,.1-.2.2-.4.3-.4,0-.7.4-1,1s-.6,1.4-.9,2.3c-.3.9-.5,1.9-.8,3-.2,1-.4,2.1-.6,3.1h0c0,.2,0,.1,0,.1h0c.9,0,1.9-.3,2.9-.6,1.1-.3,2.2-.8,3.3-1.3s2.2-1.1,3.3-1.8c1.1-.7,2.1-1.5,3-2.3.9-.9,1.6-1.8,2.2-2.9,1.5-2.5,1.7-4.3.5-5.5-.6-.6-1.4-1-2.6-1.2-1.1-.2-2.5-.3-4-.2-1.5,0-3.1.3-4.8.8-1.7.4-3.4.9-5,1.6-1.7.7-3.3,1.5-4.7,2.4-.6.4-1.2.8-1.9,1.3s-1.3,1.1-1.9,1.8c-.6.7-1,1.4-1.3,2.2-.3.8-.3,1.5,0,2.4v.5c0,.2-.2.3-.4.3h-.5c-.2,0-.3-.2-.3-.4-.5-1.5-.2-3.1.8-4.6,1-1.6,2.7-3.1,5-4.5,1.2-.7,2.5-1.4,3.9-2s2.9-1.1,4.4-1.6c1.5-.4,2.9-.8,4.4-1s2.8-.4,4.1-.4,2.4.1,3.4.4,1.8.7,2.4,1.3c.4.3.7.8.9,1.4s.3,1.4.1,2.3c-.1.9-.6,2-1.3,3.3l-.7-.2ZM190.2,319.4h.4c-.2-.4-.4-.7-.6-1h-.1v.5c0,.1.2.3.5.4h-.2Z"/>
  <path class="cls-1" d="M247.8,305.8c.4.3.7.8.9,1.4s.3,1.4.1,2.3c-.1.9-.6,2-1.3,3.3-.6,1-1.3,1.9-2.2,2.8-.9.8-1.9,1.6-3,2.4-1.1.7-2.2,1.3-3.4,1.9s-2.4,1.1-3.5,1.5c-1.2.4-2.2.7-3.3,1-.5.1-.8.4-.9.9-.3,1.2-.6,2.3-.9,3.3-.3,1-.7,1.8-1.1,2.4-.4.6-.9,1-1.5,1.2-.3,0-.5,0-.6-.1-.2-.2-.2-.4-.1-.6,0-.3.2-.4.5-.4s.6-.4.9-.9c.3-.5.5-1.1.8-1.9s.5-1.6.7-2.4c0-.2,0-.4-.1-.6s-.3-.3-.5-.3h-1.2c-.9,0-1.5-.4-1.7-1-.1-.3-.1-.6,0-.9s.3-.6.5-.8c.2-.2.3-.4.5-.5.1-.1.3-.2.4-.2s.3,0,.5.2c.1.1.2.3.2.5s0,.3-.2.4c-.3.3-.5.5-.5.6v.2c.6.2,1.3.2,1.9.1.4,0,.6,0,.8-.2.1-.1.2-.2.3-.4v-.3c0-.2,0-.4.1-.7,0-.2,0-.4.1-.6.3-1.3.5-2.5.8-3.7s.6-2.2.9-3.2c.3-.9.7-1.7,1.1-2.3.4-.6.9-1,1.5-1.1h.5c.2,0,.3.2.3.4v.5c0,.1-.2.2-.4.3-.4,0-.7.4-1,1s-.6,1.4-.9,2.3c-.3.9-.5,1.9-.7,3-.2,1-.4,2.1-.6,3.1,0,.2,0,.4-.1.6,0,.3,0,.5.2.5h.4c1.2-.3,2.5-.8,3.8-1.3,1.4-.6,2.7-1.2,4-1.9,1.3-.8,2.5-1.6,3.6-2.5s2-1.9,2.6-3c1.5-2.5,1.7-4.4.5-5.5-.6-.6-1.5-1-2.6-1.2s-2.5-.3-4-.2c-1.5,0-3.1.3-4.8.8-1.7.4-3.4.9-5,1.6-1.7.7-3.3,1.5-4.7,2.4-.6.4-1.2.8-1.9,1.4-.7.5-1.3,1.1-1.9,1.8-.6.7-1,1.4-1.3,2.1-.3.8-.3,1.6,0,2.4v.5c0,.2-.2.3-.4.3h-.5c-.2,0-.3-.2-.3-.4-.5-1.5-.2-3.1.8-4.6,1-1.6,2.7-3.1,5-4.5,1.2-.7,2.5-1.4,3.9-2s2.9-1.1,4.4-1.6c1.5-.4,2.9-.8,4.4-1s2.8-.3,4.1-.3,2.4.1,3.5.4c1,.3,1.8.7,2.4,1.3h-.8Z"/>
  <path class="cls-1" d="M259.1,323.7c.1.1.2.3.2.5s-.1.3-.2.4c0,0-.3.2-.7.6-.4.3-1,.8-1.7,1.3-.7.5-1.5,1-2.4,1.4s-1.8.8-2.8,1.1c-1,.3-1.9.4-2.9.3-1,0-1.9-.4-2.8-1-.7-.4-1.2-1-1.6-1.7-.1-.2-.3-.3-.5-.3s-.4,0-.5.3c-.3.5-.7,1-1.1,1.5-.4.5-.8.9-1.3,1.1-.4.3-.8.4-1.3.5h0c-.3,0-.6-.1-.8-.3-.3-.2-.4-.4-.5-.7-.5-1.2-.4-2.4.2-3.5.5-1.1,1.3-2.1,2.2-2.8,1-.8,2-1.3,3.2-1.6.3,0,.4,0,.6.2.2.2.2.4.2.6s-.2.4-.5.4c-1,.3-1.9.7-2.7,1.4-.8.6-1.4,1.4-1.9,2.4s-.5,1.6-.2,2.4c0,.2.2.3.2.3.2,0,.4,0,.6-.3.3-.3.6-.7,1-1.3.4-.6.7-1.2,1.1-1.8.4-.7.7-1.3,1-1.9.1-.3.4-.4.7-.4s.5.2.5.5v.5c0,.3.2.7.3,1.1.2.4.4.9.7,1.3s.7.8,1.1,1.1c.7.5,1.5.8,2.4.8s1.7-.1,2.6-.4c.9-.3,1.7-.6,2.5-1s1.5-.9,2.1-1.3c.6-.5,1.1-.8,1.5-1.1.4-.3.6-.5.6-.5.1-.1.3-.2.4-.1.2,0,.3,0,.4.2v-.2Z"/>
  <path class="cls-1" d="M279.7,323.5c.1.1.2.3.2.5s0,.3-.2.5c-.5.6-1.2,1.1-2,1.6s-1.6,1-2.6,1.4c-.9.4-1.9.8-2.9,1-1,.3-2,.4-2.9.3-1.5,0-2.8-.4-4-1.4,0-.1-.2-.2-.4-.1-.1,0-.3,0-.4.2-.5.7-1.1,1.2-1.8,1.7-.4.3-.9.4-1.4.5-.4,0-.8-.1-1.1-.3h0c-.4-.4-.7-.8-.9-1.3-.2-.5-.4-1-.5-1.6,0-.6-.2-1.1-.2-1.5v-1.7c0-.2,0-.3.2-.4.1-.1.3-.2.4-.1.2,0,.3,0,.4.2.1.1.2.3.1.4v1.1c0,.4,0,.9.1,1.4,0,.5.2,1,.4,1.5.2.5.4.8.7,1.1.3.2.6.1.9,0,.3-.2.6-.4.9-.6.5-.5,1-1,1.4-1.6v-.3c-.3-.6-.5-1.2-.5-1.9s0-1.2.4-1.6c.2-.3.5-.5.8-.6.3,0,.7,0,1,.1.5.2.7.6.7,1.1,0,1-.3,1.9-.8,2.8v.3h.1c1,1.1,2.2,1.6,3.5,1.5.8,0,1.7,0,2.6-.3.9-.2,1.8-.5,2.6-.9.9-.4,1.7-.8,2.4-1.3.7-.5,1.4-1,1.9-1.5s.3-.2.5-.2.3,0,.5.2v-.2ZM265,324.2c.2-.4.2-.8.2-1.2h-.2c-.2.4-.2.8,0,1.2h0Z"/>
  <path class="cls-1" d="M298.8,323.7c.1.1.2.3.2.5s-.1.3-.2.4c0,0-.3.2-.7.6-.4.3-1,.8-1.7,1.3s-1.5,1-2.4,1.4-1.8.8-2.8,1.1c-1,.3-1.9.4-2.9.3-1,0-1.9-.4-2.8-1-.7-.4-1.2-1-1.6-1.7-.1-.2-.3-.3-.5-.3s-.4,0-.5.3c-.3.5-.7,1-1.1,1.5s-.8.9-1.3,1.1c-.4.3-.8.4-1.3.5h0c-.3,0-.6-.1-.8-.3-.3-.2-.4-.4-.5-.7-.5-1.2-.4-2.4.2-3.5.5-1.1,1.3-2.1,2.2-2.8,1-.8,2-1.3,3.2-1.6.3,0,.4,0,.6.2s.2.4.2.6-.2.4-.5.4c-1,.3-1.9.7-2.7,1.4-.8.6-1.4,1.4-1.9,2.4s-.5,1.6-.2,2.4c0,.2.2.3.2.3.2,0,.4,0,.6-.3.3-.3.6-.7,1-1.3.4-.6.7-1.2,1.1-1.8.4-.7.7-1.3,1-1.9.1-.3.4-.4.7-.4s.5.2.5.5v.5c0,.3.2.7.3,1.1.2.4.4.9.7,1.3.3.4.7.8,1.1,1.1.7.5,1.5.8,2.4.8s1.7-.1,2.6-.4,1.7-.6,2.5-1,1.5-.9,2.1-1.3c.6-.5,1.1-.8,1.5-1.1.4-.3.6-.5.6-.5.1-.1.3-.2.4-.1.2,0,.3,0,.4.2v-.2Z"/>
  <path class="cls-1" d="M319.1,323.6c.1.1.2.3.2.4,0,.2,0,.3-.2.5l-.5.5c-.3.3-.8.7-1.3,1.1s-1.2.9-1.9,1.3c-.7.4-1.5.8-2.3,1.1-.8.3-1.7.5-2.6.5s-1.8-.1-2.7-.5c-1.3-.6-2.2-1.5-2.9-2.8,0-.1-.2-.3-.4-.6-.2-.3-.4-.4-.7-.4s-.4,0-.6.1c-.3,0-.6.3-1.1.5-.4.3-1,.7-1.6,1.3-.6.6-1.3,1.3-2.1,2.3-.2.2-.5.3-.8.1-.3-.2-.4-.4-.3-.7l1.2-5.3c0-.2.1-.3.3-.4.2,0,.3-.1.5,0,.2,0,.3.1.4.3,0,.2.1.3,0,.5l-.5,2.4v.2h.2c1.8-1.7,3.3-2.5,4.5-2.4.5,0,.9.3,1.3.6.3.3.5.6.7.9.5,1,1.3,1.8,2.3,2.3.8.3,1.5.5,2.3.4.8,0,1.6-.2,2.3-.5.7-.3,1.4-.6,2.1-1s1.2-.8,1.7-1.2c.5-.4.9-.7,1.1-1,.3-.3.4-.4.5-.4.1-.1.3-.2.4-.2s.3,0,.5.2h0Z"/>
  <path class="cls-2" d="M206.9,302.8"/>
  <path class="cls-2" d="M211,305.7"/>
</svg>