<?xml version="1.0" encoding="UTF-8"?>
<svg id="Camada_1" data-name="Camada 1" xmlns="http://www.w3.org/2000/svg" version="1.1" viewBox="0 0 600 600">
  <defs>
    <style>
      .cls-1 {
        fill: #000;
        stroke-width: 0px;
      }
    </style>
  </defs>
  <path class="cls-1" d="M540.23,601.17H67.97c-2.47-3.02-4.64-6.36-7.47-8.99-10.14-9.42-12.95-20.25-11.66-34.35,3.91-42.55,6.11-85.25,9.02-127.89,3.33-48.87,6.73-97.74,10.06-146.61,2.91-42.84,5.75-85.68,8.65-128.51.72-10.63,1.55-21.26,2.38-32.45,2.83,0,5.14,0,7.44,0,36.9,0,73.79-.08,110.69.1,4.5.02,6.65-1.11,7.42-5.8.88-5.36,2.57-10.6,4.18-15.81,8.19-26.54,19.75-51.27,38.87-71.94,13.38-14.47,29.66-23.75,48.95-27.76,5.86,0,11.72,0,17.58,0,5.75,1.73,11.68,2.99,17.2,5.26,20.89,8.57,35.53,24.27,47.5,42.8,13.37,20.72,21.8,43.51,27.36,67.39,1.05,4.51,2.8,5.88,7.36,5.86,38.26-.18,76.53-.1,114.79-.1,2.27,0,4.55,0,7.05,0,1.66,38.69,3.3,76.51,4.91,114.33,2.1,49.14,4.15,98.29,6.27,147.43,2.55,59.28,5.2,118.56,7.63,177.85.14,3.34-.81,6.91-2.03,10.08-3.76,9.78-7.89,19.41-11.88,29.1ZM364.01,122c-2.81-8.54-5-16.42-7.97-23.99-6.61-16.83-14.78-32.8-28.9-44.77-14.56-12.34-29.5-12.43-43.79.21-20.48,18.12-29.19,42.63-36.51,68.55h117.17ZM239.23,181.78c-1.52,20.76-7.35,29.68-20.49,29.94-4.72.09-10.08-1.73-14.13-4.29-8.72-5.51-9.21-14.98-8.75-24.78-10.09,7.9-13.71,22.55-9.26,35.04,4.71,13.19,17.56,22.17,31.53,22.04,14.35-.14,27.05-9.42,31.43-22.98,4.17-12.9.04-27.39-10.33-34.97ZM370.95,182.74c-10.66,10.39-13.28,25.28-7.08,38.11,6.44,13.33,20.31,20.52,35.37,18.32,13.44-1.96,24.9-13.05,27.25-26.37,2.22-12.58-2.81-26.13-11.38-30.65-2.35,21.54-7.99,29.45-21.28,29.85-13.06.39-18.99-7.06-22.88-29.26Z"/>
</svg>