<?xml version="1.0" encoding="UTF-8"?>
<svg id="Camada_1" data-name="Camada 1" xmlns="http://www.w3.org/2000/svg" version="1.1" viewBox="0 0 600 600">
  <defs>
    <style>
      .cls-1 {
        fill: #000;
        stroke-width: 0px;
      }
    </style>
  </defs>
  <path class="cls-1" d="M289.2,96c8,0,16,0,24,0,5.4.6,10.8,1.2,16.2,2,40.3,5.7,75.9,21.8,106.4,48.8,35.9,31.8,58.4,71.3,66.7,118.8,1.3,7.7,2.1,15.5,3.1,23.2v24c-.2,1.4-.5,2.8-.7,4.2-1,7.4-1.5,14.9-2.9,22.2-7.7,40.8-26.3,76-55.4,105.5-30.5,30.9-67.2,50.3-110.1,57.8-7.7,1.3-15.5,2.1-23.3,3.2h-24c-1.2-.2-2.3-.5-3.5-.7-11.1-1.7-22.5-2.7-33.4-5.3-104.9-25.2-172.5-130.8-151.9-237.2,7.9-40.8,26.3-76,55.5-105.5,30.5-30.9,67.3-50.4,110.1-57.8,7.7-1.3,15.5-2.1,23.3-3.2ZM253,320.9c-22-16.4-35.1-37.3-37.3-64.3-2.2-27,6.4-50.4,25.8-69,34.7-33.4,88.6-31.9,121.4,1.7,32.6,33.5,35.5,96.6-13.1,131.5,45.2,18.3,74.3,50.9,87.7,97.9,60-68.5,61.6-180.1-14.4-250.9-72.9-67.9-189.4-62.5-255.7,11.8-68.8,77-54.4,182-2.5,239,5.9-22.4,16.3-42.3,31.7-59.4,15.5-17.2,34.1-29.8,56.3-38.2ZM302.5,481.6c3.7-.2,9-.4,14.3-.8,2.4-.2,4.8-.5,7.1-.8,34.1-4.3,64.4-17.6,91-39.2.9-.7,1.6-2.4,1.4-3.6-8.4-64.6-69.8-110-134-99.2-50.5,8.5-89.3,48.4-96.4,99.1-.2,1.3.8,3.3,1.8,4.1,33,26.6,70.8,39.9,114.6,40.4ZM301.3,311.5c34.2-.1,61.9-27.9,62-62,.1-34.1-28.1-62.4-62.2-62.3-34.2,0-62.4,28.5-62,62.5.3,34.3,28.2,62,62.2,61.8Z"/>
</svg>